<svg xmlns="http://www.w3.org/2000/svg" width="120" height="120" viewBox="0 0 120 120">
  <defs>
    <linearGradient id="error-illustration-a" x1="6.07%" x2="93.93%" y1="108.016%" y2="-8.011%">
      <stop offset="0%" stop-color="#C1C7D0"/>
      <stop offset="100%" stop-color="#FAFBFC"/>
    </linearGradient>
    <linearGradient id="error-illustration-b" x1="29%" x2="24410%" y1="6031%" y2="6031%">
      <stop offset="0%" stop-color="#EBECF0" stop-opacity=".1"/>
      <stop offset="100%" stop-color="#EBECF0"/>
    </linearGradient>
    <linearGradient id="error-illustration-c" x1="15.621%" x2="84.399%" y1="111.439%" y2="34.271%">
      <stop offset="0%" stop-color="#EBECF0" stop-opacity=".1"/>
      <stop offset="100%" stop-color="#EBECF0"/>
    </linearGradient>
    <linearGradient id="error-illustration-d" x1="82.013%" x2="-1.724%" y1="43.922%" y2="87.732%">
      <stop offset="0%" stop-color="#FFD740"/>
      <stop offset="100%" stop-color="#FFAB00"/>
    </linearGradient>
  </defs>
  <g fill="none" fill-rule="evenodd">
    <g transform="translate(0 9)">
      <rect width="119.417" height="90.518" y="10.257" fill="url(#error-illustration-a)" fill-rule="nonzero"/>
      <rect width="119.417" height="9.644" y="10.257" fill="#EBECF0" fill-rule="nonzero"/>
      <path fill="url(#error-illustration-b)" fill-rule="nonzero" d="M119.559184,28.28 C85.675102,25.3382524 66.244898,28.726165 54.6514286,32.5504369 C52.3689796,33.3005825 49.4302041,34.3890291 44.6008163,35.6637864 C27.1493878,40.2774272 11.0008163,40.5372816 0.142040816,40.0420874 L0.142040816,19.9009223 L119.559184,19.9009223 L119.559184,28.28 Z" style="mix-blend-mode:multiply"/>
      <ellipse cx="7.685" cy="15.047" fill="#253858" fill-rule="nonzero" rx="2.503" ry="2.505"/>
      <ellipse cx="15.855" cy="15.047" fill="#A5ADBA" fill-rule="nonzero" rx="2.503" ry="2.505"/>
      <ellipse cx="24.024" cy="15.047" fill="#0065FF" fill-rule="nonzero" rx="2.503" ry="2.505"/>
      <path fill="url(#error-illustration-c)" fill-rule="nonzero" d="M57.5510204,39.6302427 L80.7281633,79.8341262 C81.662231,81.4716923 81.6567527,83.4827323 80.713777,85.1151748 C79.7708014,86.7476173 78.0323567,87.7555884 76.1485714,87.7621359 L29.7893878,87.7621359 C27.8986851,87.7613272 26.1518906,86.751359 25.2064519,85.1123568 C24.2610131,83.4733546 24.2604209,81.4540722 25.204898,79.8145146 L48.3820408,39.6106311 C49.3315625,37.9736372 51.081176,36.9678283 52.9721842,36.971873 C54.8631924,36.9759177 56.608496,37.9892019 57.5510204,39.6302427 Z" style="mix-blend-mode:multiply"/>
      <path fill="url(#error-illustration-d)" fill-rule="nonzero" d="M65.76,35.2127184 L88.9371429,75.4166019 C89.8741257,77.0552387 89.8695105,79.0691122 88.9250268,80.7034285 C87.9805432,82.3377447 86.2388211,83.3456996 84.3526531,83.3495146 L37.9934694,83.3495146 C36.1027667,83.3487059 34.3559722,82.3387376 33.4105335,80.6997354 C32.4650948,79.0607332 32.4645025,77.0414509 33.4089796,75.4018932 L56.5861224,35.1980097 C57.5341328,33.5581175 59.2845488,32.5495233 61.177306,32.5525581 C63.0700631,32.5555928 64.8172425,33.5697947 65.76,35.2127184 Z"/>
      <path fill="#253858" fill-rule="nonzero" d="M63.12 64.3899515L64.1240816 48.9016505C64.1866269 48.0137303 63.8776394 47.13974 63.2710701 46.4888551 62.6645009 45.8379701 61.8149393 45.4687681 60.9257143 45.4696117L60.9257143 45.4696117C60.0364893 45.4687681 59.1869277 45.8379701 58.5803584 46.4888551 57.9737892 47.13974 57.6648016 48.0137303 57.7273469 48.9016505L58.7314286 64.3899515C58.8063062 65.5480137 59.7664014 66.4490132 60.9257143 66.4491748L60.9257143 66.4491748C62.0850272 66.4490132 63.0451223 65.5480137 63.12 64.3899515zM57.595102 72.6121359C57.5871541 73.5519627 57.9764381 74.4513641 58.6668537 75.0883095 59.3572692 75.7252549 60.2844805 76.0403912 61.2195918 75.9559223 63.0425733 75.8210961 64.4269109 74.2578699 64.3419817 72.4300468 64.2570526 70.6022237 62.7337358 69.1743739 60.9061224 69.2095146 59.0553865 69.239083 57.5760064 70.7593909 57.595102 72.6121359z"/>
      <path fill="#FFC400" fill-rule="nonzero" d="M65.9412245,13.6104854 L62.3657143,0.706019417 C62.329978,0.57301726 62.2068392,0.482638733 62.0693749,0.488519215 C61.9319106,0.494399697 61.8169236,0.594964836 61.7926531,0.730533981 L59.5444898,12.850534 L56.7477551,12.3308252 C56.6479601,12.311867 56.5454603,12.3458397 56.4766874,12.4206684 C56.4079146,12.4954971 56.3826206,12.6005712 56.4097959,12.6985437 L59.9853061,25.6030097 C60.0210424,25.7360119 60.1441813,25.8263904 60.2816455,25.8205099 C60.4191098,25.8146294 60.5340968,25.7140643 60.5583673,25.5784951 L62.8065306,13.4584951 L65.6032653,13.9782039 C65.7030603,13.9971621 65.8055602,13.9631894 65.874333,13.8883607 C65.9431058,13.813532 65.9683998,13.708458 65.9412245,13.6104854 Z"/>
      <path fill="#FFAB00" fill-rule="nonzero" d="M53.1134694,20.6853883 L47.8677551,16.552233 C47.8213631,16.5112401 47.7522473,16.5095637 47.7039264,16.5482595 C47.6556056,16.5869553 47.6420676,16.6548215 47.6718367,16.7091262 L50.3363265,22.2298058 L49.0530612,22.8524757 C49.0137395,22.8752683 48.9895289,22.9173069 48.9895289,22.9627913 C48.9895289,23.0082757 49.0137395,23.0503142 49.0530612,23.0731068 L54.2987755,27.2013592 C54.3451675,27.2423522 54.4142833,27.2440285 54.4626042,27.2053327 C54.510925,27.166637 54.524463,27.0987707 54.4946939,27.044466 L51.8057143,21.5237864 L53.0889796,20.9011165 C53.1290115,20.8823189 53.156437,20.84408 53.1614296,20.8001008 C53.1664222,20.7561217 53.1482671,20.7126979 53.1134694,20.6853883 Z"/>
      <path stroke="#344563" stroke-linecap="round" stroke-width=".98" d="M77.2506122,18.1407767 C76.6873469,18.910534 71.9461224,15.4343689 71.3730612,16.2041262 C70.8,16.9738835 75.5510204,20.4500485 74.9877551,21.2198058 C74.4244898,21.9895631 69.6832653,18.5133981 69.1102041,19.2880583 C68.5371429,20.0627184 73.2881633,23.5339806 72.724898,24.3037379 C72.1616327,25.0734951 67.4155102,21.602233 66.8473469,22.3719903 C66.2791837,23.1417476 71.0253061,26.6179126 70.4620408,27.3925728"/>
      <path stroke="#5E6C84" stroke-linecap="round" stroke-width=".98" d="M79.5526531 31.4865049C78.8473469 32.1287864 76.1485714 29.177233 75.4481633 29.8244175 74.7477551 30.4716019 77.4416327 33.4231553 76.7363265 34.0654369 76.0310204 34.7077184 73.3322449 31.756165 72.6318367 32.4033495 72.3036735 32.7024272 72.7102041 33.496699 73.1706122 34.3301942M43.3126531 31.422767C44.1893878 31.7953883 45.7616327 28.1034951 46.6236735 28.4810194 47.4857143 28.8585437 45.9526531 32.5406311 46.8293878 32.8936408 47.7061224 33.2466505 49.2783673 29.5743689 50.1404082 29.9518932 50.5469388 30.1234951 50.4342857 31.0109223 50.282449 31.9473786"/>
    </g>
    <rect width="120" height="120"/>
  </g>
</svg>
