<svg width="24px" height="24px" viewBox="0 0 600 590.13" version="1.1" style="enable-background:new 0 0 600 590.13;" x="0px" y="0px" xml:space="preserve" xmlns="http://www.w3.org/2000/svg" xmlns:xlink="http://www.w3.org/1999/xlink">
<!-- Generator: Adobe Illustrator 23.0.5, SVG Export Plug-In . SVG Version: 6.00 Build 0)  -->
<style type="text/css">
	.st0{opacity:0.13;}
	.st1{fill:#FFFFFF;}
	.st2{fill:url(#SVGID_1_);}
	.st3{fill:url(#SVGID_2_);}
	.st4{fill:url(#SVGID_3_);}
	.st5{fill:url(#SVGID_4_);}
	.st6{fill:url(#SVGID_5_);}
	.st7{fill:#D9D9D9;}
	.st8{fill:url(#SVGID_6_);}
	.st9{opacity:0.5;fill:#FFFFFF;}
	.st10{fill:url(#SVGID_7_);}
	.st11{fill:url(#SVGID_8_);}
	.st12{fill:url(#SVGID_9_);}
	.st13{fill:url(#SVGID_10_);}
	.st14{fill:url(#SVGID_11_);}
	.st15{fill:#636363;}
	.st16{fill:url(#SVGID_12_);}
	.st17{fill:url(#SVGID_13_);}
	.st18{fill:url(#SVGID_14_);}
	.st19{fill:url(#SVGID_15_);}
	.st20{fill:url(#SVGID_16_);}
	.st21{fill:url(#SVGID_17_);}
	.st22{fill:url(#SVGID_18_);}
	.st23{fill:url(#SVGID_19_);}
	.st24{fill:url(#SVGID_20_);}
	.st25{fill:url(#SVGID_21_);}
	.st26{fill:url(#SVGID_22_);}
	.st27{fill:url(#SVGID_23_);}
	.st28{fill:url(#SVGID_24_);}
	.st29{fill:url(#SVGID_25_);}
	.st30{fill:url(#SVGID_26_);}
</style>
<g class="st0">
	<g>
		<g>
			<g>
				<path class="st1" d="M300,478.13c-0.11,0-0.23-0.03-0.33-0.09l-72.36-41.78c-0.2-0.12-0.33-0.33-0.33-0.57
					c0-0.23,0.13-0.45,0.33-0.57l72.36-41.78c0.2-0.12,0.45-0.12,0.65,0l72.36,41.78c0.2,0.12,0.33,0.33,0.33,0.57
					s-0.13,0.45-0.33,0.57l-72.36,41.78C300.23,478.1,300.11,478.13,300,478.13z M228.95,435.7L300,476.72l71.05-41.02L300,394.68
					L228.95,435.7z"/>
				<g>
					<g>
						
							<linearGradient id="SVGID_1_" gradientUnits="userSpaceOnUse" x1="-1630.2607" y1="363.793" x2="-1538.9454" y2="426.7451" gradientTransform="matrix(-1 0 0 1 -1251.0699 0)">
							<stop  offset="0" style="stop-color:#848484"/>
							<stop  offset="1" style="stop-color:#636363"/>
						</linearGradient>
						<polygon class="st2" points="300,430.45 372.78,388.43 372.78,356.16 300,398.17 						"/>
						
							<linearGradient id="SVGID_2_" gradientUnits="userSpaceOnUse" x1="-1605.6311" y1="332.7158" x2="-1502.8817" y2="376.859" gradientTransform="matrix(-1 0 0 1 -1251.0699 0)">
							<stop  offset="0" style="stop-color:#C2C2C2"/>
							<stop  offset="1" style="stop-color:#A4A4A4"/>
						</linearGradient>
						<polygon class="st3" points="300,398.17 372.78,356.16 300,314.14 227.23,356.16 						"/>
						<polygon class="st1" points="300,388.14 355.41,356.16 300,324.17 244.59,356.16 						"/>
						
							<linearGradient id="SVGID_3_" gradientUnits="userSpaceOnUse" x1="-1560.3953" y1="379.5204" x2="-1462.9242" y2="408.905" gradientTransform="matrix(-1 0 0 1 -1251.0699 0)">
							<stop  offset="0" style="stop-color:#636363"/>
							<stop  offset="1" style="stop-color:#4D4D4D"/>
						</linearGradient>
						<polygon class="st4" points="227.22,388.43 300,430.45 300,398.17 227.22,356.16 						"/>
					</g>
					
						<linearGradient id="SVGID_4_" gradientUnits="userSpaceOnUse" x1="-1630.2607" y1="311.9001" x2="-1538.9454" y2="374.8522" gradientTransform="matrix(-1 0 0 1 -1251.0699 0)">
						<stop  offset="0" style="stop-color:#848484"/>
						<stop  offset="1" style="stop-color:#636363"/>
					</linearGradient>
					<polygon class="st5" points="300,378.55 372.78,336.54 372.78,304.26 300,346.28 					"/>
					
						<linearGradient id="SVGID_5_" gradientUnits="userSpaceOnUse" x1="-1605.6311" y1="280.8228" x2="-1502.8817" y2="324.966" gradientTransform="matrix(-1 0 0 1 -1251.0699 0)">
						<stop  offset="0" style="stop-color:#C2C2C2"/>
						<stop  offset="1" style="stop-color:#A4A4A4"/>
					</linearGradient>
					<polygon class="st6" points="300,346.28 372.78,304.26 300,262.25 227.23,304.26 					"/>
					<polygon class="st7" points="300,344.66 371.38,303.45 372.78,304.26 300,346.28 227.23,304.26 228.63,303.46 					"/>
					<polygon class="st7" points="300,396.56 371.38,355.35 372.78,356.16 300,398.17 227.23,356.16 228.63,355.35 					"/>
					
						<linearGradient id="SVGID_6_" gradientUnits="userSpaceOnUse" x1="-1560.3953" y1="327.6274" x2="-1462.9242" y2="357.0121" gradientTransform="matrix(-1 0 0 1 -1251.0699 0)">
						<stop  offset="0" style="stop-color:#636363"/>
						<stop  offset="1" style="stop-color:#4D4D4D"/>
					</linearGradient>
					<polygon class="st8" points="227.22,336.54 300,378.55 300,346.28 227.22,304.26 					"/>
				</g>
			</g>
		</g>
		<polygon class="st9" points="372.78,336.54 372.78,356.16 300,398.17 300,378.55 		"/>
		<polygon class="st9" points="227.22,336.54 227.23,356.16 300,398.17 300,378.55 		"/>
	</g>
	<g>
		<g>
			<g>
				<path class="st1" d="M388.76,530.02c-0.11,0-0.23-0.03-0.33-0.09l-72.36-41.78c-0.2-0.12-0.33-0.33-0.33-0.57
					s0.13-0.45,0.33-0.57l72.36-41.78c0.2-0.12,0.45-0.12,0.65,0l72.36,41.78c0.2,0.12,0.33,0.33,0.33,0.57
					c0,0.23-0.13,0.45-0.33,0.57l-72.36,41.78C388.99,530,388.87,530.02,388.76,530.02z M317.71,487.6l71.05,41.02l71.05-41.02
					l-71.05-41.02L317.71,487.6z"/>
				<g>
					<g>
						
							<linearGradient id="SVGID_7_" gradientUnits="userSpaceOnUse" x1="-1719.0217" y1="415.686" x2="-1627.7063" y2="478.6382" gradientTransform="matrix(-1 0 0 1 -1251.0699 0)">
							<stop  offset="0" style="stop-color:#848484"/>
							<stop  offset="1" style="stop-color:#636363"/>
						</linearGradient>
						<polygon class="st10" points="388.76,482.34 461.54,440.32 461.54,408.05 388.76,450.07 						"/>
						
							<linearGradient id="SVGID_8_" gradientUnits="userSpaceOnUse" x1="-1694.3921" y1="384.6088" x2="-1591.6427" y2="428.752" gradientTransform="matrix(-1 0 0 1 -1251.0699 0)">
							<stop  offset="0" style="stop-color:#C2C2C2"/>
							<stop  offset="1" style="stop-color:#A4A4A4"/>
						</linearGradient>
						<polygon class="st11" points="388.76,450.07 461.54,408.05 388.76,366.03 315.99,408.05 						"/>
						<polygon class="st1" points="388.76,440.04 444.17,408.05 388.76,376.06 333.36,408.05 						"/>
						
							<linearGradient id="SVGID_9_" gradientUnits="userSpaceOnUse" x1="-1649.1563" y1="431.4134" x2="-1551.6852" y2="460.798" gradientTransform="matrix(-1 0 0 1 -1251.0699 0)">
							<stop  offset="0" style="stop-color:#636363"/>
							<stop  offset="1" style="stop-color:#4D4D4D"/>
						</linearGradient>
						<polygon class="st12" points="315.99,440.32 388.76,482.34 388.76,450.07 315.99,408.05 						"/>
					</g>
					
						<linearGradient id="SVGID_10_" gradientUnits="userSpaceOnUse" x1="-1719.0217" y1="363.793" x2="-1627.7064" y2="426.7451" gradientTransform="matrix(-1 0 0 1 -1251.0699 0)">
						<stop  offset="0" style="stop-color:#848484"/>
						<stop  offset="1" style="stop-color:#636363"/>
					</linearGradient>
					<polygon class="st13" points="388.76,430.45 461.54,388.43 461.54,356.16 388.76,398.17 					"/>
					
						<linearGradient id="SVGID_11_" gradientUnits="userSpaceOnUse" x1="-1694.3921" y1="332.7158" x2="-1591.6427" y2="376.859" gradientTransform="matrix(-1 0 0 1 -1251.0699 0)">
						<stop  offset="0" style="stop-color:#C2C2C2"/>
						<stop  offset="1" style="stop-color:#A4A4A4"/>
					</linearGradient>
					<polygon class="st14" points="388.76,398.17 461.54,356.16 388.76,314.14 315.99,356.16 					"/>
					<polygon class="st7" points="388.76,396.56 460.14,355.35 461.54,356.16 388.76,398.17 315.99,356.16 317.39,355.35 					"/>
					<polygon class="st7" points="388.76,448.45 460.14,407.24 461.54,408.05 388.76,450.07 315.99,408.05 317.39,407.24 					"/>
					<polygon class="st1" points="388.76,330.21 439.76,359.66 388.76,389.1 337.76,359.66 					"/>
					<polygon class="st1" points="388.76,330.21 439.76,359.66 388.76,389.1 337.76,359.66 					"/>
					<polygon class="st15" points="388.76,330.21 337.76,359.66 331.7,356.16 388.76,323.21 445.83,356.16 439.76,359.66 					"/>
					
						<linearGradient id="SVGID_12_" gradientUnits="userSpaceOnUse" x1="-1649.1563" y1="379.5204" x2="-1551.6852" y2="408.905" gradientTransform="matrix(-1 0 0 1 -1251.0699 0)">
						<stop  offset="0" style="stop-color:#636363"/>
						<stop  offset="1" style="stop-color:#4D4D4D"/>
					</linearGradient>
					<polygon class="st16" points="315.99,388.43 388.76,430.45 388.76,398.17 315.99,356.16 					"/>
				</g>
			</g>
		</g>
		<polygon class="st9" points="461.54,388.43 461.54,408.05 388.76,450.07 388.76,430.45 		"/>
		<polygon class="st9" points="315.99,388.43 315.99,408.05 388.76,450.07 388.76,430.45 		"/>
	</g>
	<g>
		<g>
			<g>
				<path class="st1" d="M211.24,532.39c-0.11,0-0.23-0.03-0.33-0.09l-72.36-41.78c-0.2-0.12-0.33-0.33-0.33-0.57
					c0-0.23,0.13-0.45,0.33-0.57l72.36-41.78c0.2-0.12,0.45-0.12,0.65,0l72.36,41.78c0.2,0.12,0.33,0.33,0.33,0.57
					s-0.13,0.45-0.33,0.57l-72.36,41.78C211.46,532.36,211.35,532.39,211.24,532.39z M140.18,489.96l71.05,41.02l71.05-41.02
					l-71.05-41.02L140.18,489.96z"/>
				<g>
					<g>
						
							<linearGradient id="SVGID_13_" gradientUnits="userSpaceOnUse" x1="-1541.4996" y1="418.0498" x2="-1450.1843" y2="481.0019" gradientTransform="matrix(-1 0 0 1 -1251.0699 0)">
							<stop  offset="0" style="stop-color:#848484"/>
							<stop  offset="1" style="stop-color:#636363"/>
						</linearGradient>
						<polygon class="st17" points="211.24,484.7 284.01,442.69 284.01,410.41 211.24,452.43 						"/>
						
							<linearGradient id="SVGID_14_" gradientUnits="userSpaceOnUse" x1="-1516.8701" y1="386.9724" x2="-1414.1206" y2="431.1156" gradientTransform="matrix(-1 0 0 1 -1251.0699 0)">
							<stop  offset="0" style="stop-color:#C2C2C2"/>
							<stop  offset="1" style="stop-color:#A4A4A4"/>
						</linearGradient>
						<polygon class="st18" points="211.24,452.43 284.01,410.41 211.24,368.4 138.46,410.41 						"/>
						<polygon class="st1" points="211.24,442.4 266.65,410.41 211.24,378.42 155.83,410.41 						"/>
						
							<linearGradient id="SVGID_15_" gradientUnits="userSpaceOnUse" x1="-1471.6343" y1="433.7771" x2="-1374.1631" y2="463.1617" gradientTransform="matrix(-1 0 0 1 -1251.0699 0)">
							<stop  offset="0" style="stop-color:#636363"/>
							<stop  offset="1" style="stop-color:#4D4D4D"/>
						</linearGradient>
						<polygon class="st19" points="138.46,442.69 211.24,484.7 211.24,452.43 138.46,410.41 						"/>
					</g>
					
						<linearGradient id="SVGID_16_" gradientUnits="userSpaceOnUse" x1="-1541.4996" y1="366.1568" x2="-1450.1843" y2="429.1089" gradientTransform="matrix(-1 0 0 1 -1251.0699 0)">
						<stop  offset="0" style="stop-color:#848484"/>
						<stop  offset="1" style="stop-color:#636363"/>
					</linearGradient>
					<polygon class="st20" points="211.24,432.81 284.01,390.79 284.01,358.52 211.24,400.54 					"/>
					
						<linearGradient id="SVGID_17_" gradientUnits="userSpaceOnUse" x1="-1516.8701" y1="335.0795" x2="-1414.1206" y2="379.2226" gradientTransform="matrix(-1 0 0 1 -1251.0699 0)">
						<stop  offset="0" style="stop-color:#C2C2C2"/>
						<stop  offset="1" style="stop-color:#A4A4A4"/>
					</linearGradient>
					<polygon class="st21" points="211.24,400.54 284.01,358.52 211.24,316.5 138.46,358.52 					"/>
					<polygon class="st7" points="211.24,398.92 282.61,357.71 284.01,358.52 211.24,400.54 138.46,358.52 139.86,357.71 					"/>
					<polygon class="st7" points="211.24,450.81 282.61,409.6 284.01,410.41 211.24,452.43 138.46,410.41 139.86,409.61 					"/>
					
						<linearGradient id="SVGID_18_" gradientUnits="userSpaceOnUse" x1="-1471.6343" y1="381.8842" x2="-1374.1631" y2="411.2688" gradientTransform="matrix(-1 0 0 1 -1251.0699 0)">
						<stop  offset="0" style="stop-color:#636363"/>
						<stop  offset="1" style="stop-color:#4D4D4D"/>
					</linearGradient>
					<polygon class="st22" points="138.46,390.79 211.24,432.81 211.24,400.54 138.46,358.52 					"/>
				</g>
			</g>
		</g>
		<polygon class="st9" points="284.01,390.79 284.01,410.41 211.24,452.43 211.24,432.81 		"/>
		<polygon class="st9" points="138.46,390.79 138.46,410.41 211.24,452.43 211.24,432.81 		"/>
	</g>
	<g>
		<g>
			<g>
				<path class="st1" d="M300,584.28c-0.11,0-0.23-0.03-0.33-0.09l-72.36-41.78c-0.2-0.12-0.33-0.33-0.33-0.57
					c0-0.23,0.13-0.45,0.33-0.57l72.36-41.78c0.2-0.12,0.45-0.12,0.65,0l72.36,41.78c0.2,0.12,0.33,0.33,0.33,0.57
					c0,0.23-0.13,0.45-0.33,0.57l-72.36,41.78C300.23,584.25,300.11,584.28,300,584.28z M228.95,541.85L300,582.87l71.05-41.02
					L300,500.83L228.95,541.85z"/>
				<g>
					<g>
						
							<linearGradient id="SVGID_19_" gradientUnits="userSpaceOnUse" x1="-1630.2607" y1="469.9427" x2="-1538.9454" y2="532.8948" gradientTransform="matrix(-1 0 0 1 -1251.0699 0)">
							<stop  offset="0" style="stop-color:#848484"/>
							<stop  offset="1" style="stop-color:#636363"/>
						</linearGradient>
						<polygon class="st23" points="300,536.6 372.78,494.58 372.78,462.31 300,504.32 						"/>
						
							<linearGradient id="SVGID_20_" gradientUnits="userSpaceOnUse" x1="-1605.6311" y1="438.8654" x2="-1502.8817" y2="483.0086" gradientTransform="matrix(-1 0 0 1 -1251.0699 0)">
							<stop  offset="0" style="stop-color:#C2C2C2"/>
							<stop  offset="1" style="stop-color:#A4A4A4"/>
						</linearGradient>
						<polygon class="st24" points="300,504.32 372.78,462.31 300,420.29 227.23,462.31 						"/>
						<polygon class="st1" points="300,494.29 355.41,462.31 300,430.32 244.59,462.31 						"/>
						
							<linearGradient id="SVGID_21_" gradientUnits="userSpaceOnUse" x1="-1560.3953" y1="485.6701" x2="-1462.9242" y2="515.0547" gradientTransform="matrix(-1 0 0 1 -1251.0699 0)">
							<stop  offset="0" style="stop-color:#636363"/>
							<stop  offset="1" style="stop-color:#4D4D4D"/>
						</linearGradient>
						<polygon class="st25" points="227.22,494.58 300,536.6 300,504.32 227.22,462.31 						"/>
					</g>
					
						<linearGradient id="SVGID_22_" gradientUnits="userSpaceOnUse" x1="-1630.2607" y1="418.0498" x2="-1538.9454" y2="481.0019" gradientTransform="matrix(-1 0 0 1 -1251.0699 0)">
						<stop  offset="0" style="stop-color:#848484"/>
						<stop  offset="1" style="stop-color:#636363"/>
					</linearGradient>
					<polygon class="st26" points="300,484.7 372.78,442.69 372.78,410.41 300,452.43 					"/>
					
						<linearGradient id="SVGID_23_" gradientUnits="userSpaceOnUse" x1="-1605.6311" y1="386.9724" x2="-1502.8817" y2="431.1156" gradientTransform="matrix(-1 0 0 1 -1251.0699 0)">
						<stop  offset="0" style="stop-color:#C2C2C2"/>
						<stop  offset="1" style="stop-color:#A4A4A4"/>
					</linearGradient>
					<polygon class="st27" points="300,452.43 372.78,410.41 300,368.4 227.23,410.41 					"/>
					<polygon class="st7" points="300,450.81 371.38,409.6 372.78,410.41 300,452.43 227.23,410.41 228.63,409.61 					"/>
					<polygon class="st7" points="300,502.71 371.38,461.5 372.78,462.31 300,504.32 227.23,462.31 228.63,461.5 					"/>
					<polygon class="st1" points="300,384.47 351,413.91 300,443.36 249,413.91 					"/>
					<linearGradient id="SVGID_24_" gradientUnits="userSpaceOnUse" x1="259.6364" y1="413.9142" x2="344.5739" y2="413.9142">
						<stop  offset="0" style="stop-color:#C2C2C2"/>
						<stop  offset="1" style="stop-color:#A4A4A4"/>
					</linearGradient>
					<polygon class="st28" points="300,401.65 321.25,413.91 300,426.18 278.75,413.91 					"/>
					<linearGradient id="SVGID_25_" gradientUnits="userSpaceOnUse" x1="348.3974" y1="359.6576" x2="433.335" y2="359.6576">
						<stop  offset="0" style="stop-color:#C2C2C2"/>
						<stop  offset="1" style="stop-color:#A4A4A4"/>
					</linearGradient>
					<polygon class="st29" points="388.76,347.39 410.01,359.66 388.76,371.92 367.52,359.66 					"/>
					<polygon class="st15" points="300,384.47 249,413.91 242.94,410.41 300,377.47 357.07,410.41 351,413.91 					"/>
					
						<linearGradient id="SVGID_26_" gradientUnits="userSpaceOnUse" x1="-1560.3953" y1="433.7771" x2="-1462.9242" y2="463.1617" gradientTransform="matrix(-1 0 0 1 -1251.0699 0)">
						<stop  offset="0" style="stop-color:#636363"/>
						<stop  offset="1" style="stop-color:#4D4D4D"/>
					</linearGradient>
					<polygon class="st30" points="227.22,442.69 300,484.7 300,452.43 227.22,410.41 					"/>
				</g>
			</g>
		</g>
		<polygon class="st9" points="372.78,442.69 372.78,462.31 300,504.32 300,484.7 		"/>
		<polygon class="st9" points="227.22,442.69 227.23,462.31 300,504.32 300,484.7 		"/>
	</g>
</g>
<g>
	<g>
		<path class="st1" d="M280.71,445.3c0,1.78,1.25,3.94,2.79,4.82c1.54,0.89,2.79,0.17,2.79-1.61c0-1.78-1.25-3.94-2.79-4.82
			C281.96,442.81,280.71,443.53,280.71,445.3z"/>
		<path class="st1" d="M270.57,439.45c0,1.78,1.25,3.94,2.79,4.82c1.54,0.89,2.79,0.17,2.79-1.61s-1.25-3.94-2.79-4.82
			C271.82,436.95,270.57,437.67,270.57,439.45z"/>
		<path class="st1" d="M260.42,433.59c0,1.78,1.25,3.94,2.79,4.82c1.54,0.89,2.79,0.17,2.79-1.61c0-1.78-1.25-3.94-2.79-4.82
			C261.67,431.09,260.42,431.81,260.42,433.59z"/>
		<path class="st7" d="M282.12,443.34c-0.13,0.3-0.21,0.66-0.21,1.1c0,1.78,1.25,3.94,2.79,4.82c0.5,0.29,0.97,0.39,1.37,0.36
			c-0.42,0.93-1.41,1.19-2.58,0.51c-1.54-0.89-2.79-3.05-2.79-4.82C280.71,444.11,281.28,443.41,282.12,443.34z"/>
		<path class="st7" d="M271.98,437.48c-0.13,0.3-0.21,0.66-0.21,1.1c0,1.78,1.25,3.94,2.79,4.82c0.5,0.29,0.97,0.39,1.37,0.36
			c-0.42,0.93-1.41,1.19-2.58,0.51c-1.54-0.89-2.79-3.05-2.79-4.82C270.57,438.25,271.14,437.55,271.98,437.48z"/>
		<path class="st7" d="M261.84,431.62c-0.13,0.3-0.21,0.66-0.21,1.1c0,1.78,1.25,3.94,2.79,4.82c0.5,0.29,0.97,0.39,1.37,0.36
			c-0.42,0.93-1.41,1.19-2.58,0.51c-1.54-0.89-2.79-3.05-2.79-4.82C260.42,432.39,261,431.69,261.84,431.62z"/>
	</g>
	<g>
		<path class="st1" d="M280.71,483.3c0,1.78,1.25,3.94,2.79,4.82c1.54,0.89,2.79,0.17,2.79-1.61c0-1.78-1.25-3.94-2.79-4.82
			C281.96,480.81,280.71,481.53,280.71,483.3z"/>
		<path class="st1" d="M270.57,477.45c0,1.78,1.25,3.94,2.79,4.82c1.54,0.89,2.79,0.17,2.79-1.61c0-1.78-1.25-3.94-2.79-4.82
			C271.82,474.95,270.57,475.67,270.57,477.45z"/>
		<path class="st1" d="M260.42,471.59c0,1.78,1.25,3.94,2.79,4.82c1.54,0.89,2.79,0.17,2.79-1.61c0-1.78-1.25-3.94-2.79-4.82
			C261.67,469.1,260.42,469.82,260.42,471.59z"/>
		<path class="st7" d="M282.12,481.34c-0.13,0.3-0.21,0.66-0.21,1.1c0,1.78,1.25,3.94,2.79,4.82c0.5,0.29,0.97,0.39,1.37,0.36
			c-0.42,0.93-1.41,1.19-2.58,0.51c-1.54-0.89-2.79-3.05-2.79-4.82C280.71,482.11,281.28,481.41,282.12,481.34z"/>
		<path class="st7" d="M271.98,475.48c-0.13,0.3-0.21,0.66-0.21,1.1c0,1.78,1.25,3.94,2.79,4.82c0.5,0.29,0.97,0.39,1.37,0.36
			c-0.42,0.93-1.41,1.19-2.58,0.51c-1.54-0.89-2.79-3.05-2.79-4.82C270.57,476.25,271.14,475.55,271.98,475.48z"/>
		<path class="st7" d="M261.84,469.62c-0.13,0.3-0.21,0.66-0.21,1.1c0,1.78,1.25,3.94,2.79,4.82c0.5,0.29,0.97,0.39,1.37,0.36
			c-0.42,0.93-1.41,1.19-2.58,0.51c-1.54-0.89-2.79-3.05-2.79-4.82C260.42,470.4,261,469.69,261.84,469.62z"/>
	</g>
</g>
<g>
	<g>
		<path class="st1" d="M215.71,408.06c0,1.78,1.25,3.94,2.79,4.82c1.54,0.89,2.79,0.17,2.79-1.61c0-1.78-1.25-3.94-2.79-4.82
			C216.96,405.56,215.71,406.28,215.71,408.06z"/>
		<path class="st1" d="M205.57,402.2c0,1.78,1.25,3.94,2.79,4.82c1.54,0.89,2.79,0.17,2.79-1.61c0-1.78-1.25-3.94-2.79-4.82
			C206.82,399.7,205.57,400.42,205.57,402.2z"/>
		<path class="st1" d="M195.42,396.34c0,1.78,1.25,3.94,2.79,4.82s2.79,0.17,2.79-1.61c0-1.78-1.25-3.94-2.79-4.82
			S195.42,394.57,195.42,396.34z"/>
		<path class="st7" d="M217.12,406.09c-0.13,0.3-0.21,0.66-0.21,1.1c0,1.78,1.25,3.94,2.79,4.82c0.5,0.29,0.97,0.39,1.37,0.36
			c-0.42,0.93-1.41,1.19-2.58,0.51c-1.54-0.89-2.79-3.05-2.79-4.82C215.71,406.86,216.28,406.16,217.12,406.09z"/>
		<path class="st7" d="M206.98,400.23c-0.13,0.3-0.21,0.66-0.21,1.1c0,1.78,1.25,3.94,2.79,4.82c0.5,0.29,0.97,0.39,1.37,0.36
			c-0.42,0.93-1.41,1.19-2.58,0.51c-1.54-0.89-2.79-3.05-2.79-4.82C205.57,401,206.14,400.3,206.98,400.23z"/>
		<path class="st7" d="M196.84,394.38c-0.13,0.3-0.21,0.66-0.21,1.1c0,1.78,1.25,3.94,2.79,4.82c0.5,0.29,0.97,0.39,1.37,0.36
			c-0.42,0.93-1.41,1.19-2.58,0.51c-1.54-0.89-2.79-3.05-2.79-4.82C195.42,395.15,196,394.45,196.84,394.38z"/>
	</g>
	<g>
		<path class="st1" d="M215.71,446.06c0,1.78,1.25,3.94,2.79,4.82c1.54,0.89,2.79,0.17,2.79-1.61c0-1.78-1.25-3.94-2.79-4.82
			C216.96,443.56,215.71,444.28,215.71,446.06z"/>
		<path class="st1" d="M205.57,440.2c0,1.78,1.25,3.94,2.79,4.82c1.54,0.89,2.79,0.17,2.79-1.61c0-1.78-1.25-3.94-2.79-4.82
			C206.82,437.7,205.57,438.42,205.57,440.2z"/>
		<path class="st1" d="M195.42,434.34c0,1.78,1.25,3.94,2.79,4.82c1.54,0.89,2.79,0.17,2.79-1.61c0-1.78-1.25-3.94-2.79-4.82
			C196.67,431.85,195.42,432.57,195.42,434.34z"/>
		<path class="st7" d="M217.12,444.09c-0.13,0.3-0.21,0.66-0.21,1.1c0,1.78,1.25,3.94,2.79,4.82c0.5,0.29,0.97,0.39,1.37,0.36
			c-0.42,0.93-1.41,1.19-2.58,0.51c-1.54-0.89-2.79-3.05-2.79-4.82C215.71,444.86,216.28,444.16,217.12,444.09z"/>
		<path class="st7" d="M206.98,438.23c-0.13,0.3-0.21,0.66-0.21,1.1c0,1.78,1.25,3.94,2.79,4.82c0.5,0.29,0.97,0.39,1.37,0.36
			c-0.42,0.93-1.41,1.19-2.58,0.51c-1.54-0.89-2.79-3.05-2.79-4.82C205.57,439,206.14,438.3,206.98,438.23z"/>
		<path class="st7" d="M196.84,432.38c-0.13,0.3-0.21,0.66-0.21,1.1c0,1.78,1.25,3.94,2.79,4.82c0.5,0.29,0.97,0.39,1.37,0.36
			c-0.42,0.93-1.41,1.19-2.58,0.51c-1.54-0.89-2.79-3.05-2.79-4.82C195.42,433.15,196,432.45,196.84,432.38z"/>
	</g>
</g>
<g>
	<g>
		<path class="st1" d="M319.28,445.3c0,1.78-1.25,3.94-2.79,4.82c-1.54,0.89-2.79,0.17-2.79-1.61c0-1.78,1.25-3.94,2.79-4.82
			S319.28,443.53,319.28,445.3z"/>
		<path class="st1" d="M329.43,439.45c0,1.78-1.25,3.94-2.79,4.82c-1.54,0.89-2.79,0.17-2.79-1.61s1.25-3.94,2.79-4.82
			C328.18,436.95,329.43,437.67,329.43,439.45z"/>
		<path class="st1" d="M339.57,433.59c0,1.78-1.25,3.94-2.79,4.82c-1.54,0.89-2.79,0.17-2.79-1.61c0-1.78,1.25-3.94,2.79-4.82
			C338.32,431.09,339.57,431.81,339.57,433.59z"/>
		<path class="st7" d="M317.87,443.34c0.13,0.3,0.21,0.66,0.21,1.1c0,1.78-1.25,3.94-2.79,4.82c-0.5,0.29-0.97,0.39-1.37,0.36
			c0.42,0.93,1.41,1.19,2.58,0.51c1.54-0.89,2.79-3.05,2.79-4.82C319.28,444.11,318.71,443.41,317.87,443.34z"/>
		<path class="st7" d="M328.02,437.48c0.13,0.3,0.21,0.66,0.21,1.1c0,1.78-1.25,3.94-2.79,4.82c-0.5,0.29-0.97,0.39-1.37,0.36
			c0.42,0.93,1.41,1.19,2.58,0.51c1.54-0.89,2.79-3.05,2.79-4.82C329.43,438.25,328.85,437.55,328.02,437.48z"/>
		<path class="st7" d="M338.16,431.62c0.13,0.3,0.21,0.66,0.21,1.1c0,1.78-1.25,3.94-2.79,4.82c-0.5,0.29-0.97,0.39-1.37,0.36
			c0.42,0.93,1.41,1.19,2.58,0.51c1.54-0.89,2.79-3.05,2.79-4.82C339.57,432.39,339,431.69,338.16,431.62z"/>
	</g>
	<g>
		<path class="st1" d="M319.28,483.3c0,1.78-1.25,3.94-2.79,4.82s-2.79,0.17-2.79-1.61c0-1.78,1.25-3.94,2.79-4.82
			S319.28,481.53,319.28,483.3z"/>
		<path class="st1" d="M329.43,477.45c0,1.78-1.25,3.94-2.79,4.82c-1.54,0.89-2.79,0.17-2.79-1.61c0-1.78,1.25-3.94,2.79-4.82
			C328.18,474.95,329.43,475.67,329.43,477.45z"/>
		<path class="st1" d="M339.57,471.59c0,1.78-1.25,3.94-2.79,4.82c-1.54,0.89-2.79,0.17-2.79-1.61c0-1.78,1.25-3.94,2.79-4.82
			C338.32,469.1,339.57,469.82,339.57,471.59z"/>
		<path class="st7" d="M317.87,481.34c0.13,0.3,0.21,0.66,0.21,1.1c0,1.78-1.25,3.94-2.79,4.82c-0.5,0.29-0.97,0.39-1.37,0.36
			c0.42,0.93,1.41,1.19,2.58,0.51c1.54-0.89,2.79-3.05,2.79-4.82C319.28,482.11,318.71,481.41,317.87,481.34z"/>
		<path class="st7" d="M328.02,475.48c0.13,0.3,0.21,0.66,0.21,1.1c0,1.78-1.25,3.94-2.79,4.82c-0.5,0.29-0.97,0.39-1.37,0.36
			c0.42,0.93,1.41,1.19,2.58,0.51c1.54-0.89,2.79-3.05,2.79-4.82C329.43,476.25,328.85,475.55,328.02,475.48z"/>
		<path class="st7" d="M338.16,469.62c0.13,0.3,0.21,0.66,0.21,1.1c0,1.78-1.25,3.94-2.79,4.82c-0.5,0.29-0.97,0.39-1.37,0.36
			c0.42,0.93,1.41,1.19,2.58,0.51c1.54-0.89,2.79-3.05,2.79-4.82C339.57,470.4,339,469.69,338.16,469.62z"/>
	</g>
</g>
<g>
	<g>
		<path class="st1" d="M384.95,405.57c0,1.78-1.25,3.94-2.79,4.82c-1.54,0.89-2.79,0.17-2.79-1.61c0-1.78,1.25-3.94,2.79-4.82
			C383.7,403.07,384.95,403.79,384.95,405.57z"/>
		<path class="st1" d="M395.09,399.71c0,1.78-1.25,3.94-2.79,4.82c-1.54,0.89-2.79,0.17-2.79-1.61c0-1.78,1.25-3.94,2.79-4.82
			C393.85,397.22,395.09,397.94,395.09,399.71z"/>
		<path class="st1" d="M405.24,393.86c0,1.78-1.25,3.94-2.79,4.82c-1.54,0.89-2.79,0.17-2.79-1.61c0-1.78,1.25-3.94,2.79-4.82
			C403.99,391.36,405.24,392.08,405.24,393.86z"/>
		<path class="st7" d="M383.54,403.6c0.13,0.3,0.21,0.66,0.21,1.1c0,1.78-1.25,3.94-2.79,4.82c-0.5,0.29-0.97,0.39-1.37,0.36
			c0.42,0.93,1.41,1.19,2.58,0.51c1.54-0.89,2.79-3.05,2.79-4.82C384.95,404.37,384.38,403.67,383.54,403.6z"/>
		<path class="st7" d="M393.68,397.75c0.13,0.3,0.21,0.66,0.21,1.1c0,1.78-1.25,3.94-2.79,4.82c-0.5,0.29-0.97,0.39-1.37,0.36
			c0.42,0.93,1.41,1.19,2.58,0.51c1.54-0.89,2.79-3.05,2.79-4.82C395.09,398.52,394.52,397.82,393.68,397.75z"/>
		<path class="st7" d="M403.83,391.89c0.13,0.3,0.21,0.66,0.21,1.1c0,1.78-1.25,3.94-2.79,4.82c-0.5,0.29-0.97,0.39-1.37,0.36
			c0.42,0.93,1.41,1.19,2.58,0.51c1.54-0.89,2.79-3.05,2.79-4.82C405.24,392.66,404.67,391.96,403.83,391.89z"/>
	</g>
	<g>
		<path class="st1" d="M384.95,443.57c0,1.78-1.25,3.94-2.79,4.82c-1.54,0.89-2.79,0.17-2.79-1.61c0-1.78,1.25-3.94,2.79-4.82
			C383.7,441.08,384.95,441.8,384.95,443.57z"/>
		<path class="st1" d="M395.09,437.72c0,1.78-1.25,3.94-2.79,4.82c-1.54,0.89-2.79,0.17-2.79-1.61c0-1.78,1.25-3.94,2.79-4.82
			C393.85,435.22,395.09,435.94,395.09,437.72z"/>
		<path class="st1" d="M405.24,431.86c0,1.78-1.25,3.94-2.79,4.82c-1.54,0.89-2.79,0.17-2.79-1.61c0-1.78,1.25-3.94,2.79-4.82
			C403.99,429.36,405.24,430.08,405.24,431.86z"/>
		<path class="st7" d="M383.54,441.61c0.13,0.3,0.21,0.66,0.21,1.1c0,1.78-1.25,3.94-2.79,4.82c-0.5,0.29-0.97,0.39-1.37,0.36
			c0.42,0.93,1.41,1.19,2.58,0.51c1.54-0.89,2.79-3.05,2.79-4.82C384.95,442.38,384.38,441.67,383.54,441.61z"/>
		<path class="st7" d="M393.68,435.75c0.13,0.3,0.21,0.66,0.21,1.1c0,1.78-1.25,3.94-2.79,4.82c-0.5,0.29-0.97,0.39-1.37,0.36
			c0.42,0.93,1.41,1.19,2.58,0.51c1.54-0.89,2.79-3.05,2.79-4.82C395.09,436.52,394.52,435.82,393.68,435.75z"/>
		<path class="st7" d="M403.83,429.89c0.13,0.3,0.21,0.66,0.21,1.1c0,1.78-1.25,3.94-2.79,4.82c-0.5,0.29-0.97,0.39-1.37,0.36
			c0.42,0.93,1.41,1.19,2.58,0.51c1.54-0.89,2.79-3.05,2.79-4.82C405.24,430.66,404.67,429.96,403.83,429.89z"/>
	</g>
</g>
</svg>
