<?xml version="1.0" encoding="utf-8"?>
<!-- Generator: Adobe Illustrator 23.0.5, SVG Export Plug-In . SVG Version: 6.00 Build 0)  -->
<svg version="1.1" id="Layer_1" xmlns="http://www.w3.org/2000/svg" xmlns:xlink="http://www.w3.org/1999/xlink" x="0px" y="0px"
	 viewBox="0 0 142 146" style="enable-background:new 0 0 142 146;" xml:space="preserve">
<style type="text/css">
	.st0{fill-rule:evenodd;clip-rule:evenodd;fill:#DDEEF3;}
	.st1{fill-rule:evenodd;clip-rule:evenodd;fill:#1F5081;}
	.st2{fill-rule:evenodd;clip-rule:evenodd;fill:#FFFFFF;}
	.st3{fill-rule:evenodd;clip-rule:evenodd;fill:#A6B9CD;}
	.st4{opacity:0.8;}
	.st5{fill-rule:evenodd;clip-rule:evenodd;fill:#E8EDF2;}
	.st6{fill-rule:evenodd;clip-rule:evenodd;fill:#C0CEDB;}
	.st7{fill-rule:evenodd;clip-rule:evenodd;fill:#849EB9;}
	.st8{fill-rule:evenodd;clip-rule:evenodd;fill:#D4DDE6;}
	.st9{fill-rule:evenodd;clip-rule:evenodd;fill:#7A96B3;}
	.st10{fill-rule:evenodd;clip-rule:evenodd;fill:#3572B0;}
	.st11{fill-rule:evenodd;clip-rule:evenodd;fill:#C9D4DD;}
</style>
<circle class="st0" cx="71" cy="75" r="71"/>
<g>
	<path class="st1" d="M95.8,40.8l-2-2.1l-2.9,0l0-2.8l3.5,0c0.4,0,0.7,0.1,1,0.4l2.4,2.5L95.8,40.8"/>
	<path class="st2" d="M42.4,116.7c-1.8,0.1-4.6-1.3-4.3-5.6l0.1-73.3c0.3-0.6,2.1-2.1,3.5-2.1l53.2,0l9.7,9.8l0.7,67.3
		c0,1.5-2,3.8-4.1,3.8C101.3,116.5,42.4,116.7,42.4,116.7z"/>
	<path class="st1" d="M40.5,116c-1.9-0.4-3.2-2.1-3.2-4.1l0-1.6l2.8,0l0,1.6c0,0.8,0.6,1.4,1.4,1.4l0.9,0l0,2.8l-0.9,0
		C41.1,116.1,40.8,116.1,40.5,116 M48.6,116.1l0-2.8l6.9,0l0,2.8L48.6,116.1 M61.6,116.1l0-2.8l6.9,0l0,2.8L61.6,116.1 M74.7,116.2
		l0-2.8l6.9,0l0,2.8L74.7,116.2 M37.3,104.2l0-6.9l2.8,0l0,6.9L37.3,104.2 M87.8,116.2l0-2.8l6.9,0l0,2.8L87.8,116.2 M101.2,116.1
		l-0.6-2.7c0.6-0.1,1.1-0.7,1.1-1.4l0-3.1l2.8,0l0,3.1c0,0.3,0,0.7-0.1,1C104,114.5,102.8,115.7,101.2,116.1 M37.3,91.1l0-6.9l2.8,0
		l0,6.9L37.3,91.1 M101.7,102.7l0-6.9l2.8,0l0,6.9L101.7,102.7 M37.3,78l0-6.9l2.8,0l0,6.9L37.3,78 M101.7,89.6l0-6.9l2.8,0l0,6.9
		L101.7,89.6 M37.3,64.9l0-6.9l2.8,0l0,6.9L37.3,64.9 M101.7,76.5l0-6.9l2.8,0l0,6.9L101.7,76.5 M37.3,51.8l0-6.9l2.8,0l0,6.9
		L37.3,51.8 M101.7,63.4l0-6.9l2.8,0l0,6.9L101.7,63.4 M40.2,39.4l-2.4-1.3c0.7-1.3,2.1-2.2,3.7-2.2l3.9,0l0,2.8l-3.9,0
		C41,38.7,40.5,39,40.2,39.4 M51.6,38.7l0-2.8l6.9,0l0,2.8L51.6,38.7 M101.7,50.3l0-3.5l-1.6-1.6l2-2l2,2c0.3,0.3,0.4,0.6,0.4,1
		l0,4.1L101.7,50.3 M64.7,38.7l0-2.8l6.9,0l0,2.8L64.7,38.7 M77.8,38.7l0-2.8l6.9,0l0,2.8L77.8,38.7"/>
	<path class="st2" d="M51,94.3l39.8,0L51,94.3"/>
	<path class="st3" d="M90.8,93l-39.8,0l0,2.8l39.8,0l0-1.4l-39.8,0l39.8,0L90.8,93"/>
	<path class="st3" d="M90.8,94.4l-39.8,0L90.8,94.4L90.8,94.4"/>
	<path class="st2" d="M51,102l39.8,0L51,102"/>
	<path class="st3" d="M90.8,100.6l-39.8,0l0,2.8l39.8,0l0-1.4L51,102l39.8,0L90.8,100.6 M90.8,102L51,102L90.8,102"/>
	<g class="st4">
		<path class="st5" d="M87.6,73.2c-0.9,2.6-2.3,5-4.3,6.9L79.2,76l4.1,4.1C85.3,78.2,86.7,75.8,87.6,73.2 M75,50.6
			c-1.3-0.3-2.7-0.5-4.1-0.5l0,5.9c-5.5,0-10.2,3.8-11.4,9c1.2-5.2,5.9-9,11.4-9c2.4,0,4.8,0.8,6.8,2.2l2.9-5.1
			C78.9,51.9,77,51.1,75,50.6"/>
		<path class="st6" d="M79.2,76c-2.2,2.2-5.2,3.4-8.3,3.4l0,5.9c3.1,0,6.1-0.8,8.8-2.4c1.3-0.8,2.5-1.7,3.6-2.8L79.2,76"/>
		<path class="st7" d="M82.4,70.2c-0.5,2.2-1.6,4.2-3.2,5.8l4.1,4.1c1.9-1.9,3.4-4.3,4.3-6.9L82.4,70.2"/>
		<path class="st6" d="M70.9,50.1c-8.3,0-15.3,5.8-17.1,13.5c-0.3,1.3-0.5,2.7-0.5,4.1l5.9,0c0-0.9,0.1-1.8,0.3-2.7
			c1.2-5.2,5.9-9,11.4-9L70.9,50.1"/>
		<path class="st7" d="M59.2,67.7l-5.9,0c0,8.3,5.7,15.3,13.5,17.1c1.3,0.3,2.7,0.5,4.1,0.5l0-5.9c-0.9,0-1.9-0.1-2.7-0.3
			C63,77.9,59.2,73.2,59.2,67.7"/>
		<path class="st8" d="M88.5,67.7l0,0.2C88.5,67.8,88.5,67.7,88.5,67.7 M83.8,63.6l-1.3,2.3c0.1,0.6,0.1,1.2,0.1,1.8l5.9,0
			c0-0.5,0-1-0.1-1.5l-4.5-2.6L83.8,63.6 M82.5,61.1L82.5,61.1c-0.1,0.2-0.2,0.5-0.2,0.7C82.4,61.6,82.4,61.3,82.5,61.1 M80.6,53
			l-2.9,5.1c0.8,0.6,1.6,1.3,2.2,2c0.1-0.1,0.1-0.3,0.2-0.4l0.8-1.4l2.4,1.3l1.6-2.8C83.6,55.4,82.2,54.1,80.6,53"/>
		<path class="st9" d="M88.5,67.7l-5.9,0c0,0.9-0.1,1.7-0.3,2.5l5.2,3c0.4-1.2,0.7-2.5,0.8-3.9L87.8,69l0.6-1.1
			C88.5,67.8,88.5,67.7,88.5,67.7"/>
	</g>
	<g>
		<path class="st10" d="M102.5,45.8l-8.8,0.3l-0.4-8.9L102.5,45.8"/>
		<path class="st1" d="M103,47.2c-0.1,0-0.3,0.1-0.4,0.1l-8.8,0.3c-0.8,0-1.4-0.6-1.4-1.3L92,37.4c0-0.8,0.6-1.4,1.3-1.4
			c0.4,0,0.7,0.1,1,0.4l9.1,8.5c0.6,0.5,0.6,1.4,0.1,2C103.4,47,103.2,47.1,103,47.2"/>
		<path class="st11" d="M95.1,44.7l4.1-0.2l-4.2-4L95.1,44.7"/>
	</g>
	<path class="st5" d="M54.9,74.4c-1.1-2.5-1.6-5.3-1.5-8l5.9,0.3l-5.9-0.3C53.2,69.2,53.7,71.9,54.9,74.4 M79.4,82.7
		c1.2-0.6,2.3-1.4,3.4-2.4L78.8,76c4.1-3.7,5-9.7,2.4-14.3c2.6,4.6,1.7,10.6-2.4,14.3c-1.8,1.6-4.1,2.7-6.5,2.9l1.3,5.7
		C75.6,84.4,77.6,83.7,79.4,82.7"/>
	<path class="st6" d="M59.2,66.7c0.2-3.1,1.5-6,3.8-8.1l-3.9-4.3c-2.3,2.1-4,4.7-4.9,7.7c-0.5,1.5-0.7,3-0.8,4.5L59.2,66.7"/>
	<path class="st7" d="M60.8,73.1c-1.1-1.9-1.7-4.2-1.5-6.4l-5.9-0.3c-0.1,2.7,0.4,5.5,1.5,8L60.8,73.1"/>
	<path class="st6" d="M82.7,80.3c6.2-5.6,7.5-14.5,3.6-21.5c-0.7-1.2-1.5-2.3-2.4-3.3l-4.3,3.9c0.6,0.7,1.1,1.4,1.6,2.2
		c2.6,4.6,1.7,10.6-2.4,14.3L82.7,80.3"/>
	<path class="st7" d="M79.6,59.4l4.3-3.9c-5.6-6.2-14.5-7.5-21.5-3.6c-1.2,0.6-2.3,1.4-3.4,2.4l3.9,4.3c0.7-0.6,1.4-1.2,2.2-1.6
		C69.9,54.5,75.9,55.3,79.6,59.4"/>
</g>
</svg>
